<?xml version="1.0" encoding="UTF-8"?>
<svg id="Layer_1" data-name="Layer 1" xmlns="http://www.w3.org/2000/svg" viewBox="0 0 71.97 117.73">
  <defs>
    <style>
      .cls-1 {
        fill: #273733;
        stroke-width: 0px;
      }
    </style>
  </defs>
  <path class="cls-1" d="m17.57,100.51c-3.78,0-7.56,0-11.34,0-.99,0-1.98.07-2.96-.04-2.98-.34-3.58-1.26-2.62-4.2,1.51-4.67,3.06-9.33,4.69-13.96,5.49-15.6,11.02-31.2,16.54-46.79,3.82-10.78,7.7-21.54,11.44-32.34.21-.6.42-1.21.78-1.73s.9-.95,1.53-1.04c.77-.1,1.53.33,2.03.93s.77,1.34,1.04,2.07c7.64,20.68,14.33,41.74,22.19,62.34,3.59,9.41,6.08,19.2,9.92,28.53,2.36,5.74.13,6.52-5.97,6.21s-12.01-.29-18.01-.04c-2.26.09-4.52.04-6.78.1-.48.01-1.02.05-1.34.41-.22.25-.29.59-.33.91-.21,1.47-.1,2.94-.11,4.42-.02,2.58-.02,5.14.05,7.72.03,1.12-.23,2.37-1.16,3-.38.26-.83.38-1.29.38-.56,0-1.13-.23-1.52-.64-.75-.79-.69-2.02-.62-3.1.27-3.9-.02-7.77-.17-11.66-.01-.33-.03-.68-.23-.95-.29-.39-.84-.44-1.33-.46-4.81-.19-9.62-.07-14.43-.07Zm1.98-4.56c2.74,0,5.47.01,8.21.06,1.45.03,2.98-.15,4.18-.97s1.94-2.45,1.37-3.78c-.25-.58-.71-1.04-1.15-1.48-1.54-1.52-3.07-3.05-4.61-4.57-.7-.69-1.42-1.42-1.75-2.34s-.17-2.11.64-2.66c.68-.46,1.63-.36,2.35.05,1.41.8,2.1,2.48,3.62,3.15.35.16.84.09,1.03-.24.08-.13.1-.28.12-.43.51-4.21.06-8.71.1-12.96.03-3.19.56-4.19,2.13-4.3,1.7-.12,2.37,1.18,2.51,4.47.08,1.89.32,3.77.5,5.65,1.1-1.63,3.33-3.29,5.21-3.92.38-.13.79-.21,1.16-.1.39.12.68.46.86.83.51,1.09.05,2.43-.73,3.35s-1.83,1.56-2.75,2.34c-4.48,3.79-5.2,10.53-4.25,15.99.1.59.27,1.25.78,1.57.36.24.82.25,1.26.25,7.98.06,15.95,0,23.93,0,.57,0,1.23-.05,1.58-.5.37-.48.19-1.17,0-1.75-6.33-18.81-13.15-37.46-19.74-56.18-2.98-8.44-6-16.86-9.04-25.28-.23-.64-.49-1.31-1.02-1.72-.61.37-.89,1.1-1.12,1.77-6.72,19-13.22,38.1-20.18,57.01-2.92,8.24-5.96,16.43-8.74,24.71-.14.42-.28.89-.08,1.28.27.54.99.63,1.6.64,4.03.09,8.05.05,12.08.05Z"/>
</svg>